# xmcd
#
# Track frame offsets:
#	150
#	21750
#	42470
#	66880
#	85720
#	100370
#	119140
#	132327
#	152140
#	174660
#
# Disc length: 2694 seconds
#
# Revision: 1354023503
# Processed by: cddbd v1.5.2PL0 Copyright (c) Steve Scherf et al.
# Submitted via: EZCDAudioConverter 8.0.2.1
#
DISCID=8a0a840a
DTITLE=Công Thành, Lyn - Công Thành and Lyn
DYEAR=1992
DGENRE=Retrospective Pop
TTITLE0=Công Thành - Khúc thụy du
TTITLE1=Công Thành, Lyn - Lối về xóm nhỏ
TTITLE2=Lyn - The way you love me
TTITLE3=Công Thành, Lyn - Somewhere out there
TTITLE4=Công Thành - Parce que tu sais
TTITLE5=Công Thành, Lyn - Tình nghĩa đôi ta chỉ thế thôi
TTITLE6=Công Thành - Retiens la nuit
TTITLE7=Lyn - Don't rush me
TTITLE8=Công Thành - Rien qu'une larme dans tes yeux
TTITLE9=Công Thành, Lyn - Niệm khúc cuối
EXTD=
EXTT0=
EXTT1=
EXTT2=
EXTT3=
EXTT4=
EXTT5=
EXTT6=
EXTT7=
EXTT8=
EXTT9=
PLAYORDER=
